<mxfile host="app.diagrams.net" modified="2021-03-13T09:55:15.121Z" agent="5.0 (Macintosh; Intel Mac OS X 10_15_6) AppleWebKit/605.1.15 (KHTML, like Gecko) Version/14.0.3 Safari/605.1.15" etag="IcHgW1bpBPtitT01kifr" version="14.4.8" type="github">
  <diagram name="Page-1" id="c7558073-3199-34d8-9f00-42111426c3f3">
    <mxGraphModel dx="946" dy="645" grid="1" gridSize="10" guides="1" tooltips="1" connect="1" arrows="1" fold="1" page="1" pageScale="1" pageWidth="826" pageHeight="1169" background="#ffffff" math="0" shadow="0">
      <root>
        <mxCell id="0" />
        <mxCell id="1" parent="0" />
        <object placeholders="1" c4Name="Recruiter" c4Type="User" c4Description="User Journey" label="&lt;b&gt;%c4Name%&lt;/b&gt;&lt;div&gt;[%c4Type%]&lt;/div&gt;&lt;br&gt;&lt;div&gt;%c4Description%&lt;/div&gt;" id="LXgWC3fWeTjp4GmtMOgY-97">
          <mxCell style="html=1;dashed=0;whitespace=wrap;fillColor=#08427b;strokeColor=none;fontColor=#ffffff;shape=mxgraph.c4.person;align=center;metaEdit=1;points=[[0.5,0,0],[1,0.5,0],[1,0.75,0],[0.75,1,0],[0.5,1,0],[0.25,1,0],[0,0.75,0],[0,0.5,0]];metaData={&quot;c4Type&quot;:{&quot;editable&quot;:false}};" vertex="1" parent="1">
            <mxGeometry x="70" y="70" width="100" height="120" as="geometry" />
          </mxCell>
        </object>
        <mxCell id="LXgWC3fWeTjp4GmtMOgY-98" value="" style="endArrow=classic;html=1;exitX=0.5;exitY=1;exitDx=0;exitDy=0;exitPerimeter=0;" edge="1" parent="1" source="LXgWC3fWeTjp4GmtMOgY-97">
          <mxGeometry width="50" height="50" relative="1" as="geometry">
            <mxPoint x="390" y="360" as="sourcePoint" />
            <mxPoint x="120" y="740" as="targetPoint" />
          </mxGeometry>
        </mxCell>
        <mxCell id="LXgWC3fWeTjp4GmtMOgY-99" value="" style="aspect=fixed;perimeter=ellipsePerimeter;html=1;align=center;shadow=0;dashed=0;fontColor=#4277BB;labelBackgroundColor=#ffffff;fontSize=12;spacingTop=3;image;image=img/lib/ibm/management/provider_cloud_portal_service.svg;" vertex="1" parent="1">
          <mxGeometry x="370" y="55" width="150" height="150" as="geometry" />
        </mxCell>
        <mxCell id="LXgWC3fWeTjp4GmtMOgY-100" value="" style="endArrow=classic;html=1;" edge="1" parent="1">
          <mxGeometry width="50" height="50" relative="1" as="geometry">
            <mxPoint x="140" y="260" as="sourcePoint" />
            <mxPoint x="430" y="260" as="targetPoint" />
          </mxGeometry>
        </mxCell>
        <mxCell id="LXgWC3fWeTjp4GmtMOgY-101" value="Dashboard Portal" style="text;html=1;strokeColor=none;fillColor=none;align=center;verticalAlign=middle;whiteSpace=wrap;rounded=0;fontStyle=1" vertex="1" parent="1">
          <mxGeometry x="392.5" y="205" width="105" height="20" as="geometry" />
        </mxCell>
        <mxCell id="LXgWC3fWeTjp4GmtMOgY-102" value="" style="endArrow=classic;html=1;exitX=0.5;exitY=1;exitDx=0;exitDy=0;" edge="1" parent="1" source="LXgWC3fWeTjp4GmtMOgY-101">
          <mxGeometry width="50" height="50" relative="1" as="geometry">
            <mxPoint x="350" y="360" as="sourcePoint" />
            <mxPoint x="445" y="750" as="targetPoint" />
          </mxGeometry>
        </mxCell>
        <mxCell id="LXgWC3fWeTjp4GmtMOgY-103" value="User Account Management" style="text;html=1;strokeColor=none;fillColor=none;align=center;verticalAlign=middle;whiteSpace=wrap;rounded=0;" vertex="1" parent="1">
          <mxGeometry x="250" y="225" width="40" height="20" as="geometry" />
        </mxCell>
        <mxCell id="LXgWC3fWeTjp4GmtMOgY-104" value="" style="endArrow=classic;html=1;" edge="1" parent="1">
          <mxGeometry width="50" height="50" relative="1" as="geometry">
            <mxPoint x="140" y="325" as="sourcePoint" />
            <mxPoint x="430" y="325" as="targetPoint" />
          </mxGeometry>
        </mxCell>
        <mxCell id="LXgWC3fWeTjp4GmtMOgY-105" value="Upload Job Descriptions" style="text;html=1;strokeColor=none;fillColor=none;align=center;verticalAlign=middle;whiteSpace=wrap;rounded=0;" vertex="1" parent="1">
          <mxGeometry x="250" y="290" width="40" height="20" as="geometry" />
        </mxCell>
        <mxCell id="LXgWC3fWeTjp4GmtMOgY-106" value="" style="endArrow=classic;html=1;" edge="1" parent="1">
          <mxGeometry width="50" height="50" relative="1" as="geometry">
            <mxPoint x="140" y="380" as="sourcePoint" />
            <mxPoint x="430" y="380" as="targetPoint" />
          </mxGeometry>
        </mxCell>
        <mxCell id="LXgWC3fWeTjp4GmtMOgY-107" value="Search Candidates" style="text;html=1;strokeColor=none;fillColor=none;align=center;verticalAlign=middle;whiteSpace=wrap;rounded=0;" vertex="1" parent="1">
          <mxGeometry x="250" y="350" width="40" height="20" as="geometry" />
        </mxCell>
        <mxCell id="LXgWC3fWeTjp4GmtMOgY-108" value="" style="endArrow=classic;html=1;" edge="1" parent="1">
          <mxGeometry width="50" height="50" relative="1" as="geometry">
            <mxPoint x="140" y="460" as="sourcePoint" />
            <mxPoint x="430" y="460" as="targetPoint" />
          </mxGeometry>
        </mxCell>
        <mxCell id="LXgWC3fWeTjp4GmtMOgY-109" value="View AI based Matched Candidates&amp;nbsp;" style="text;html=1;strokeColor=none;fillColor=none;align=center;verticalAlign=middle;whiteSpace=wrap;rounded=0;" vertex="1" parent="1">
          <mxGeometry x="250" y="410" width="40" height="20" as="geometry" />
        </mxCell>
        <mxCell id="LXgWC3fWeTjp4GmtMOgY-110" value="" style="endArrow=classic;html=1;" edge="1" parent="1">
          <mxGeometry width="50" height="50" relative="1" as="geometry">
            <mxPoint x="135" y="535" as="sourcePoint" />
            <mxPoint x="425" y="535" as="targetPoint" />
          </mxGeometry>
        </mxCell>
        <mxCell id="LXgWC3fWeTjp4GmtMOgY-111" value="Virtual Team Management/Hiring" style="text;html=1;strokeColor=none;fillColor=none;align=center;verticalAlign=middle;whiteSpace=wrap;rounded=0;" vertex="1" parent="1">
          <mxGeometry x="260" y="490" width="40" height="20" as="geometry" />
        </mxCell>
        <mxCell id="LXgWC3fWeTjp4GmtMOgY-112" value="Audio/Video Chat Support" style="text;html=1;strokeColor=none;fillColor=none;align=center;verticalAlign=middle;whiteSpace=wrap;rounded=0;" vertex="1" parent="1">
          <mxGeometry x="260" y="565" width="40" height="20" as="geometry" />
        </mxCell>
        <mxCell id="LXgWC3fWeTjp4GmtMOgY-113" value="" style="endArrow=classic;html=1;" edge="1" parent="1">
          <mxGeometry width="50" height="50" relative="1" as="geometry">
            <mxPoint x="420" y="600" as="sourcePoint" />
            <mxPoint x="140" y="600" as="targetPoint" />
          </mxGeometry>
        </mxCell>
        <mxCell id="LXgWC3fWeTjp4GmtMOgY-114" value="" style="points=[[0,0,0],[0.25,0,0],[0.5,0,0],[0.75,0,0],[1,0,0],[0,1,0],[0.25,1,0],[0.5,1,0],[0.75,1,0],[1,1,0],[0,0.25,0],[0,0.5,0],[0,0.75,0],[1,0.25,0],[1,0.5,0],[1,0.75,0]];outlineConnect=0;fontColor=#232F3E;gradientColor=#4AB29A;gradientDirection=north;fillColor=#116D5B;strokeColor=#ffffff;dashed=0;verticalLabelPosition=bottom;verticalAlign=top;align=center;html=1;fontSize=12;fontStyle=0;aspect=fixed;shape=mxgraph.aws4.resourceIcon;resIcon=mxgraph.aws4.machine_learning;" vertex="1" parent="1">
          <mxGeometry x="650" y="60" width="120" height="120" as="geometry" />
        </mxCell>
        <mxCell id="LXgWC3fWeTjp4GmtMOgY-115" value="Machine Learning Platform" style="text;html=1;strokeColor=none;fillColor=none;align=center;verticalAlign=middle;whiteSpace=wrap;rounded=0;fontStyle=1" vertex="1" parent="1">
          <mxGeometry x="657.5" y="190" width="105" height="20" as="geometry" />
        </mxCell>
        <mxCell id="LXgWC3fWeTjp4GmtMOgY-116" value="" style="endArrow=classic;html=1;" edge="1" parent="1">
          <mxGeometry width="50" height="50" relative="1" as="geometry">
            <mxPoint x="710" y="220" as="sourcePoint" />
            <mxPoint x="710" y="640" as="targetPoint" />
          </mxGeometry>
        </mxCell>
        <mxCell id="LXgWC3fWeTjp4GmtMOgY-117" value="" style="endArrow=classic;html=1;" edge="1" parent="1">
          <mxGeometry width="50" height="50" relative="1" as="geometry">
            <mxPoint x="460" y="320" as="sourcePoint" />
            <mxPoint x="690" y="320" as="targetPoint" />
          </mxGeometry>
        </mxCell>
        <mxCell id="LXgWC3fWeTjp4GmtMOgY-118" value="Indexing&lt;br&gt;Job&lt;br&gt;Description" style="text;html=1;strokeColor=none;fillColor=none;align=center;verticalAlign=middle;whiteSpace=wrap;rounded=0;" vertex="1" parent="1">
          <mxGeometry x="560" y="280" width="40" height="20" as="geometry" />
        </mxCell>
        <mxCell id="LXgWC3fWeTjp4GmtMOgY-119" value="" style="endArrow=classic;html=1;" edge="1" parent="1">
          <mxGeometry width="50" height="50" relative="1" as="geometry">
            <mxPoint x="690" y="450" as="sourcePoint" />
            <mxPoint x="470" y="450" as="targetPoint" />
          </mxGeometry>
        </mxCell>
        <mxCell id="LXgWC3fWeTjp4GmtMOgY-120" value="Extract NLP based Features" style="text;html=1;strokeColor=none;fillColor=none;align=center;verticalAlign=middle;whiteSpace=wrap;rounded=0;" vertex="1" parent="1">
          <mxGeometry x="560" y="340" width="40" height="20" as="geometry" />
        </mxCell>
        <mxCell id="LXgWC3fWeTjp4GmtMOgY-121" value="Indexed/Relevant Resumes" style="text;html=1;strokeColor=none;fillColor=none;align=center;verticalAlign=middle;whiteSpace=wrap;rounded=0;" vertex="1" parent="1">
          <mxGeometry x="570" y="420" width="40" height="20" as="geometry" />
        </mxCell>
        <mxCell id="LXgWC3fWeTjp4GmtMOgY-122" value="Roles/Permissions Management" style="text;html=1;strokeColor=none;fillColor=none;align=center;verticalAlign=middle;whiteSpace=wrap;rounded=0;" vertex="1" parent="1">
          <mxGeometry x="260" y="670" width="40" height="20" as="geometry" />
        </mxCell>
        <mxCell id="LXgWC3fWeTjp4GmtMOgY-123" value="" style="endArrow=classic;html=1;" edge="1" parent="1">
          <mxGeometry width="50" height="50" relative="1" as="geometry">
            <mxPoint x="420" y="705" as="sourcePoint" />
            <mxPoint x="140" y="705" as="targetPoint" />
          </mxGeometry>
        </mxCell>
        <mxCell id="LXgWC3fWeTjp4GmtMOgY-124" value="Subscription/Payment Management" style="text;html=1;strokeColor=none;fillColor=none;align=center;verticalAlign=middle;whiteSpace=wrap;rounded=0;" vertex="1" parent="1">
          <mxGeometry x="260" y="620" width="40" height="20" as="geometry" />
        </mxCell>
        <mxCell id="LXgWC3fWeTjp4GmtMOgY-125" value="" style="endArrow=classic;html=1;" edge="1" parent="1">
          <mxGeometry width="50" height="50" relative="1" as="geometry">
            <mxPoint x="420" y="655" as="sourcePoint" />
            <mxPoint x="140" y="655" as="targetPoint" />
          </mxGeometry>
        </mxCell>
      </root>
    </mxGraphModel>
  </diagram>
</mxfile>
